# xmcd
#
# Track frame offsets: 
#        150
#        15937
#        27495
#        41982
#        59132
#        74177
#        89130
#        102515
#        115075
#        129672
#
# Disc length: 1934 seconds
#
# Revision: 8
# Processed by: cddbd v1.5.2PL0 Copyright (c) Steve Scherf et al.
# Submitted via: ExactAudioCopy v1.3
#
DISCID=9b078c0a
DTITLE=Various Artist - NFL Country
DYEAR=1996
DGENRE=Country
TTITLE0=Steve Azar and Brett Favre - Born With It
TTITLE1=Toby Keith and Troy Aikman - Two Pair of Levis and a Pair of J
TTITLE1=ustin Boots
TTITLE2=Doug Supernaw and Hershel Walker - Four Scores and Seven Beers
TTITLE2=Ago
TTITLE3=Jamie Warren with Chris Mohr and Steve Tasker - Too Hip for th
TTITLE3=e Room
TTITLE4=Lari White and Esera Tuaolo - Another Broken Heart
TTITLE5=Glen Campbell and Terry Bradshaw - You Never Know Just How Goo
TTITLE5=d You've Got It
TTITLE6=Neal McCoy and Coach Joe Avezzano - The Boys Are Back in Town
TTITLE7=John Anderson and Mike Young - Let Someone Else Drive
TTITLE8=Waylon Jennings, Troy Aikman, Bill Bates, Dale Hellestrae, Mar
TTITLE8=k Tuinei and Coach Joe Avezzano - The Good Old Dallas Cowboys
TTITLE9=Asleep At The Wheel and Jason Sehorn - Boogie Back To Texas
EXTD=YEAR: 1996
EXTT0=
EXTT1=
EXTT2=
EXTT3=
EXTT4=
EXTT5=
EXTT6=
EXTT7=
EXTT8=
EXTT9=
PLAYORDER=
